# xmcd
#
# Track frame offsets: 
#        150
#        18361
#        31996
#        48044
#        64678
#        78322
#        93608
#        112223
#        131531
#        147928
#
# Disc length: 2166 seconds
#
# Revision: 0
# Processed by: cddbd v1.5.1PL2 Copyright (c) Steve Scherf et al.
# Submitted via: ExactAudioCopy v0.95b4
#
DISCID=8108740a
DTITLE=Jasiyah Bey - Beautifull
DYEAR=1900
DGENRE=Soul
TTITLE0=Comin' home with me
TTITLE1=Put the move on
TTITLE2=Party y'all
TTITLE3=Feel the heat
TTITLE4=Love the way you're loving me
TTITLE5=Why did she have to leave
TTITLE6=Beautiful
TTITLE7=Juices flowing
TTITLE8=Do you love me
TTITLE9=Nasty girl
EXTD=
EXTT0=
EXTT1=
EXTT2=
EXTT3=
EXTT4=
EXTT5=
EXTT6=
EXTT7=
EXTT8=
EXTT9=
PLAYORDER=
